<mxfile host="app.diagrams.net" agent="Mozilla/5.0 (Windows NT 10.0; Win64; x64) AppleWebKit/537.36 (KHTML, like Gecko) Chrome/129.0.0.0 Safari/537.36" version="24.7.16">
  <diagram id="C5RBs43oDa-KdzZeNtuy" name="Page-1">
    <mxGraphModel dx="1321" dy="1186" grid="1" gridSize="10" guides="1" tooltips="1" connect="1" arrows="1" fold="1" page="1" pageScale="1" pageWidth="827" pageHeight="1169" math="0" shadow="0">
      <root>
        <mxCell id="WIyWlLk6GJQsqaUBKTNV-0" />
        <mxCell id="WIyWlLk6GJQsqaUBKTNV-1" parent="WIyWlLk6GJQsqaUBKTNV-0" />
        <mxCell id="4kRNJsw04LjUU6sO1p-s-2" value="&lt;h1 style=&quot;margin-top: 0px;&quot;&gt;Check in&lt;/h1&gt;&lt;p&gt;Check user in process.&lt;/p&gt;&lt;p&gt;Workflow is different for staff or clientes&lt;/p&gt;" style="text;html=1;whiteSpace=wrap;overflow=hidden;rounded=0;" vertex="1" parent="WIyWlLk6GJQsqaUBKTNV-1">
          <mxGeometry x="30" y="10" width="180" height="120" as="geometry" />
        </mxCell>
        <mxCell id="4kRNJsw04LjUU6sO1p-s-12" style="edgeStyle=orthogonalEdgeStyle;rounded=0;orthogonalLoop=1;jettySize=auto;html=1;exitX=0.5;exitY=1;exitDx=0;exitDy=0;entryX=0.5;entryY=0;entryDx=0;entryDy=0;" edge="1" parent="WIyWlLk6GJQsqaUBKTNV-1" source="4kRNJsw04LjUU6sO1p-s-4" target="4kRNJsw04LjUU6sO1p-s-6">
          <mxGeometry relative="1" as="geometry" />
        </mxCell>
        <mxCell id="4kRNJsw04LjUU6sO1p-s-4" value="request" style="ellipse;whiteSpace=wrap;html=1;aspect=fixed;" vertex="1" parent="WIyWlLk6GJQsqaUBKTNV-1">
          <mxGeometry x="70" y="140" width="50" height="50" as="geometry" />
        </mxCell>
        <mxCell id="4kRNJsw04LjUU6sO1p-s-6" value="is authed" style="rhombus;whiteSpace=wrap;html=1;" vertex="1" parent="WIyWlLk6GJQsqaUBKTNV-1">
          <mxGeometry x="57.5" y="280" width="75" height="80" as="geometry" />
        </mxCell>
        <mxCell id="4kRNJsw04LjUU6sO1p-s-8" value="Fail" style="strokeWidth=2;html=1;shape=mxgraph.flowchart.terminator;whiteSpace=wrap;" vertex="1" parent="WIyWlLk6GJQsqaUBKTNV-1">
          <mxGeometry x="-250" y="1370" width="100" height="60" as="geometry" />
        </mxCell>
        <mxCell id="4kRNJsw04LjUU6sO1p-s-14" style="edgeStyle=orthogonalEdgeStyle;rounded=0;orthogonalLoop=1;jettySize=auto;html=1;exitX=0;exitY=0.5;exitDx=0;exitDy=0;entryX=0.5;entryY=0;entryDx=0;entryDy=0;entryPerimeter=0;" edge="1" parent="WIyWlLk6GJQsqaUBKTNV-1" source="4kRNJsw04LjUU6sO1p-s-6" target="4kRNJsw04LjUU6sO1p-s-8">
          <mxGeometry relative="1" as="geometry" />
        </mxCell>
        <mxCell id="4kRNJsw04LjUU6sO1p-s-21" style="edgeStyle=orthogonalEdgeStyle;rounded=0;orthogonalLoop=1;jettySize=auto;html=1;exitX=0;exitY=0.5;exitDx=0;exitDy=0;exitPerimeter=0;entryX=0;entryY=0.5;entryDx=0;entryDy=0;" edge="1" parent="WIyWlLk6GJQsqaUBKTNV-1" source="4kRNJsw04LjUU6sO1p-s-15" target="4kRNJsw04LjUU6sO1p-s-63">
          <mxGeometry relative="1" as="geometry">
            <mxPoint x="19.96" y="500" as="sourcePoint" />
            <mxPoint x="19.96" y="690" as="targetPoint" />
          </mxGeometry>
        </mxCell>
        <mxCell id="4kRNJsw04LjUU6sO1p-s-24" value="Staff" style="edgeLabel;html=1;align=center;verticalAlign=middle;resizable=0;points=[];" vertex="1" connectable="0" parent="4kRNJsw04LjUU6sO1p-s-21">
          <mxGeometry x="0.1478" y="4" relative="1" as="geometry">
            <mxPoint x="1" y="-42" as="offset" />
          </mxGeometry>
        </mxCell>
        <mxCell id="4kRNJsw04LjUU6sO1p-s-22" style="edgeStyle=orthogonalEdgeStyle;rounded=0;orthogonalLoop=1;jettySize=auto;html=1;exitX=1;exitY=0.5;exitDx=0;exitDy=0;exitPerimeter=0;entryX=1;entryY=0.5;entryDx=0;entryDy=0;" edge="1" parent="WIyWlLk6GJQsqaUBKTNV-1" source="4kRNJsw04LjUU6sO1p-s-15" target="4kRNJsw04LjUU6sO1p-s-63">
          <mxGeometry relative="1" as="geometry" />
        </mxCell>
        <mxCell id="4kRNJsw04LjUU6sO1p-s-25" value="User" style="edgeLabel;html=1;align=center;verticalAlign=middle;resizable=0;points=[];" vertex="1" connectable="0" parent="4kRNJsw04LjUU6sO1p-s-22">
          <mxGeometry x="0.0676" relative="1" as="geometry">
            <mxPoint y="-3" as="offset" />
          </mxGeometry>
        </mxCell>
        <mxCell id="4kRNJsw04LjUU6sO1p-s-15" value="Role" style="strokeWidth=2;html=1;shape=mxgraph.flowchart.decision;whiteSpace=wrap;" vertex="1" parent="WIyWlLk6GJQsqaUBKTNV-1">
          <mxGeometry x="45" y="450" width="100" height="100" as="geometry" />
        </mxCell>
        <mxCell id="4kRNJsw04LjUU6sO1p-s-18" value="Extract&amp;nbsp;&lt;div&gt;Physical&lt;/div&gt;&lt;div&gt;Information&lt;/div&gt;" style="rounded=1;whiteSpace=wrap;html=1;absoluteArcSize=1;arcSize=14;strokeWidth=2;" vertex="1" parent="WIyWlLk6GJQsqaUBKTNV-1">
          <mxGeometry x="45" y="800" width="100" height="100" as="geometry" />
        </mxCell>
        <mxCell id="4kRNJsw04LjUU6sO1p-s-20" style="edgeStyle=orthogonalEdgeStyle;rounded=0;orthogonalLoop=1;jettySize=auto;html=1;exitX=0.5;exitY=1;exitDx=0;exitDy=0;entryX=0.5;entryY=0;entryDx=0;entryDy=0;entryPerimeter=0;" edge="1" parent="WIyWlLk6GJQsqaUBKTNV-1" source="4kRNJsw04LjUU6sO1p-s-6" target="4kRNJsw04LjUU6sO1p-s-15">
          <mxGeometry relative="1" as="geometry" />
        </mxCell>
        <mxCell id="4kRNJsw04LjUU6sO1p-s-23" value="&lt;h1 style=&quot;margin-top: 0px;&quot;&gt;Extract physical info&lt;/h1&gt;&lt;p&gt;Get place, event , b&lt;span style=&quot;background-color: initial;&quot;&gt;alcony and menu information of where the&lt;br&gt;user is checked at.&lt;/span&gt;&lt;/p&gt;" style="text;html=1;whiteSpace=wrap;overflow=hidden;rounded=0;" vertex="1" parent="WIyWlLk6GJQsqaUBKTNV-1">
          <mxGeometry x="310" y="10" width="180" height="120" as="geometry" />
        </mxCell>
        <mxCell id="4kRNJsw04LjUU6sO1p-s-29" style="edgeStyle=orthogonalEdgeStyle;rounded=0;orthogonalLoop=1;jettySize=auto;html=1;exitX=0.5;exitY=1;exitDx=0;exitDy=0;" edge="1" parent="WIyWlLk6GJQsqaUBKTNV-1" source="4kRNJsw04LjUU6sO1p-s-27" target="4kRNJsw04LjUU6sO1p-s-28">
          <mxGeometry relative="1" as="geometry" />
        </mxCell>
        <mxCell id="4kRNJsw04LjUU6sO1p-s-27" value="" style="ellipse;whiteSpace=wrap;html=1;aspect=fixed;" vertex="1" parent="WIyWlLk6GJQsqaUBKTNV-1">
          <mxGeometry x="350" y="150" width="80" height="80" as="geometry" />
        </mxCell>
        <mxCell id="4kRNJsw04LjUU6sO1p-s-32" style="edgeStyle=orthogonalEdgeStyle;rounded=0;orthogonalLoop=1;jettySize=auto;html=1;exitX=0;exitY=0.5;exitDx=0;exitDy=0;entryX=0.5;entryY=0;entryDx=0;entryDy=0;" edge="1" parent="WIyWlLk6GJQsqaUBKTNV-1" source="4kRNJsw04LjUU6sO1p-s-28" target="4kRNJsw04LjUU6sO1p-s-30">
          <mxGeometry relative="1" as="geometry" />
        </mxCell>
        <mxCell id="4kRNJsw04LjUU6sO1p-s-34" value="true" style="edgeLabel;html=1;align=center;verticalAlign=middle;resizable=0;points=[];" vertex="1" connectable="0" parent="4kRNJsw04LjUU6sO1p-s-32">
          <mxGeometry x="0.2944" y="1" relative="1" as="geometry">
            <mxPoint as="offset" />
          </mxGeometry>
        </mxCell>
        <mxCell id="4kRNJsw04LjUU6sO1p-s-28" value="has place" style="rhombus;whiteSpace=wrap;html=1;" vertex="1" parent="WIyWlLk6GJQsqaUBKTNV-1">
          <mxGeometry x="350" y="270" width="80" height="80" as="geometry" />
        </mxCell>
        <mxCell id="4kRNJsw04LjUU6sO1p-s-33" style="edgeStyle=orthogonalEdgeStyle;rounded=0;orthogonalLoop=1;jettySize=auto;html=1;exitX=0.5;exitY=1;exitDx=0;exitDy=0;entryX=0.5;entryY=0;entryDx=0;entryDy=0;" edge="1" parent="WIyWlLk6GJQsqaUBKTNV-1" source="4kRNJsw04LjUU6sO1p-s-30" target="4kRNJsw04LjUU6sO1p-s-31">
          <mxGeometry relative="1" as="geometry" />
        </mxCell>
        <mxCell id="4kRNJsw04LjUU6sO1p-s-30" value="find current or upcomming soon event&amp;nbsp;" style="rounded=1;whiteSpace=wrap;html=1;absoluteArcSize=1;arcSize=14;strokeWidth=2;" vertex="1" parent="WIyWlLk6GJQsqaUBKTNV-1">
          <mxGeometry x="260" y="380" width="100" height="100" as="geometry" />
        </mxCell>
        <mxCell id="4kRNJsw04LjUU6sO1p-s-52" style="edgeStyle=orthogonalEdgeStyle;rounded=0;orthogonalLoop=1;jettySize=auto;html=1;exitX=0.5;exitY=1;exitDx=0;exitDy=0;entryX=0.5;entryY=0;entryDx=0;entryDy=0;" edge="1" parent="WIyWlLk6GJQsqaUBKTNV-1" source="4kRNJsw04LjUU6sO1p-s-31" target="4kRNJsw04LjUU6sO1p-s-51">
          <mxGeometry relative="1" as="geometry" />
        </mxCell>
        <mxCell id="4kRNJsw04LjUU6sO1p-s-31" value="Find balcony and menu" style="rounded=1;whiteSpace=wrap;html=1;absoluteArcSize=1;arcSize=14;strokeWidth=2;" vertex="1" parent="WIyWlLk6GJQsqaUBKTNV-1">
          <mxGeometry x="260" y="520" width="100" height="100" as="geometry" />
        </mxCell>
        <mxCell id="4kRNJsw04LjUU6sO1p-s-44" style="edgeStyle=orthogonalEdgeStyle;rounded=0;orthogonalLoop=1;jettySize=auto;html=1;exitX=1;exitY=0.5;exitDx=0;exitDy=0;exitPerimeter=0;entryX=0;entryY=0.5;entryDx=0;entryDy=0;" edge="1" parent="WIyWlLk6GJQsqaUBKTNV-1" source="4kRNJsw04LjUU6sO1p-s-36" target="4kRNJsw04LjUU6sO1p-s-43">
          <mxGeometry relative="1" as="geometry" />
        </mxCell>
        <mxCell id="4kRNJsw04LjUU6sO1p-s-45" value="false" style="edgeLabel;html=1;align=center;verticalAlign=middle;resizable=0;points=[];" vertex="1" connectable="0" parent="4kRNJsw04LjUU6sO1p-s-44">
          <mxGeometry x="-0.1478" y="3" relative="1" as="geometry">
            <mxPoint as="offset" />
          </mxGeometry>
        </mxCell>
        <mxCell id="4kRNJsw04LjUU6sO1p-s-36" value="has event" style="strokeWidth=2;html=1;shape=mxgraph.flowchart.decision;whiteSpace=wrap;" vertex="1" parent="WIyWlLk6GJQsqaUBKTNV-1">
          <mxGeometry x="470" y="370" width="100" height="100" as="geometry" />
        </mxCell>
        <mxCell id="4kRNJsw04LjUU6sO1p-s-58" style="edgeStyle=orthogonalEdgeStyle;rounded=0;orthogonalLoop=1;jettySize=auto;html=1;exitX=0;exitY=0.5;exitDx=0;exitDy=0;entryX=0.5;entryY=1;entryDx=0;entryDy=0;" edge="1" parent="WIyWlLk6GJQsqaUBKTNV-1" source="4kRNJsw04LjUU6sO1p-s-37" target="4kRNJsw04LjUU6sO1p-s-28">
          <mxGeometry relative="1" as="geometry" />
        </mxCell>
        <mxCell id="4kRNJsw04LjUU6sO1p-s-37" value="find place" style="rounded=1;whiteSpace=wrap;html=1;absoluteArcSize=1;arcSize=14;strokeWidth=2;" vertex="1" parent="WIyWlLk6GJQsqaUBKTNV-1">
          <mxGeometry x="480" y="530" width="80" height="90" as="geometry" />
        </mxCell>
        <mxCell id="4kRNJsw04LjUU6sO1p-s-38" style="edgeStyle=orthogonalEdgeStyle;rounded=0;orthogonalLoop=1;jettySize=auto;html=1;exitX=1;exitY=0.5;exitDx=0;exitDy=0;entryX=0.5;entryY=0;entryDx=0;entryDy=0;entryPerimeter=0;" edge="1" parent="WIyWlLk6GJQsqaUBKTNV-1" source="4kRNJsw04LjUU6sO1p-s-28" target="4kRNJsw04LjUU6sO1p-s-36">
          <mxGeometry relative="1" as="geometry" />
        </mxCell>
        <mxCell id="4kRNJsw04LjUU6sO1p-s-39" value="false" style="edgeLabel;html=1;align=center;verticalAlign=middle;resizable=0;points=[];" vertex="1" connectable="0" parent="4kRNJsw04LjUU6sO1p-s-38">
          <mxGeometry x="0.4999" y="1" relative="1" as="geometry">
            <mxPoint as="offset" />
          </mxGeometry>
        </mxCell>
        <mxCell id="4kRNJsw04LjUU6sO1p-s-40" style="edgeStyle=orthogonalEdgeStyle;rounded=0;orthogonalLoop=1;jettySize=auto;html=1;exitX=0.5;exitY=1;exitDx=0;exitDy=0;exitPerimeter=0;entryX=0.402;entryY=0.062;entryDx=0;entryDy=0;entryPerimeter=0;" edge="1" parent="WIyWlLk6GJQsqaUBKTNV-1" source="4kRNJsw04LjUU6sO1p-s-36" target="4kRNJsw04LjUU6sO1p-s-37">
          <mxGeometry relative="1" as="geometry" />
        </mxCell>
        <mxCell id="4kRNJsw04LjUU6sO1p-s-42" value="true" style="edgeLabel;html=1;align=center;verticalAlign=middle;resizable=0;points=[];" vertex="1" connectable="0" parent="4kRNJsw04LjUU6sO1p-s-40">
          <mxGeometry x="-0.2951" y="1" relative="1" as="geometry">
            <mxPoint y="-3" as="offset" />
          </mxGeometry>
        </mxCell>
        <mxCell id="4kRNJsw04LjUU6sO1p-s-46" style="edgeStyle=orthogonalEdgeStyle;rounded=0;orthogonalLoop=1;jettySize=auto;html=1;exitX=0.5;exitY=1;exitDx=0;exitDy=0;entryX=1;entryY=0.5;entryDx=0;entryDy=0;" edge="1" parent="WIyWlLk6GJQsqaUBKTNV-1" source="4kRNJsw04LjUU6sO1p-s-43" target="4kRNJsw04LjUU6sO1p-s-37">
          <mxGeometry relative="1" as="geometry">
            <Array as="points">
              <mxPoint x="680" y="570" />
            </Array>
          </mxGeometry>
        </mxCell>
        <mxCell id="4kRNJsw04LjUU6sO1p-s-47" value="true" style="edgeLabel;html=1;align=center;verticalAlign=middle;resizable=0;points=[];" vertex="1" connectable="0" parent="4kRNJsw04LjUU6sO1p-s-46">
          <mxGeometry x="-0.4099" relative="1" as="geometry">
            <mxPoint as="offset" />
          </mxGeometry>
        </mxCell>
        <mxCell id="4kRNJsw04LjUU6sO1p-s-43" value="has balcony" style="rounded=1;whiteSpace=wrap;html=1;absoluteArcSize=1;arcSize=14;strokeWidth=2;" vertex="1" parent="WIyWlLk6GJQsqaUBKTNV-1">
          <mxGeometry x="630" y="370" width="100" height="100" as="geometry" />
        </mxCell>
        <mxCell id="4kRNJsw04LjUU6sO1p-s-51" value="find menu" style="rounded=1;whiteSpace=wrap;html=1;absoluteArcSize=1;arcSize=14;strokeWidth=2;" vertex="1" parent="WIyWlLk6GJQsqaUBKTNV-1">
          <mxGeometry x="260" y="650" width="100" height="100" as="geometry" />
        </mxCell>
        <mxCell id="4kRNJsw04LjUU6sO1p-s-56" style="edgeStyle=orthogonalEdgeStyle;rounded=0;orthogonalLoop=1;jettySize=auto;html=1;exitX=1;exitY=0.5;exitDx=0;exitDy=0;entryX=1;entryY=0.5;entryDx=0;entryDy=0;entryPerimeter=0;" edge="1" parent="WIyWlLk6GJQsqaUBKTNV-1" source="4kRNJsw04LjUU6sO1p-s-43" target="4kRNJsw04LjUU6sO1p-s-8">
          <mxGeometry relative="1" as="geometry" />
        </mxCell>
        <mxCell id="4kRNJsw04LjUU6sO1p-s-59" value="Success" style="strokeWidth=2;html=1;shape=mxgraph.flowchart.terminator;whiteSpace=wrap;" vertex="1" parent="WIyWlLk6GJQsqaUBKTNV-1">
          <mxGeometry x="390" y="790" width="100" height="60" as="geometry" />
        </mxCell>
        <mxCell id="4kRNJsw04LjUU6sO1p-s-60" style="edgeStyle=orthogonalEdgeStyle;rounded=0;orthogonalLoop=1;jettySize=auto;html=1;exitX=0.5;exitY=1;exitDx=0;exitDy=0;entryX=0;entryY=0.5;entryDx=0;entryDy=0;entryPerimeter=0;" edge="1" parent="WIyWlLk6GJQsqaUBKTNV-1" source="4kRNJsw04LjUU6sO1p-s-51" target="4kRNJsw04LjUU6sO1p-s-59">
          <mxGeometry relative="1" as="geometry" />
        </mxCell>
        <mxCell id="4kRNJsw04LjUU6sO1p-s-61" value="&lt;h1 style=&quot;margin-top: 0px;&quot;&gt;Will return&lt;/h1&gt;&lt;p&gt;* place&lt;br&gt;&lt;span style=&quot;background-color: initial;&quot;&gt;* event&lt;br&gt;&lt;/span&gt;&lt;span style=&quot;background-color: initial;&quot;&gt;* balcony&lt;br&gt;&lt;/span&gt;&lt;span style=&quot;background-color: initial;&quot;&gt;* menu&lt;/span&gt;&lt;/p&gt;" style="text;html=1;whiteSpace=wrap;overflow=hidden;rounded=0;" vertex="1" parent="WIyWlLk6GJQsqaUBKTNV-1">
          <mxGeometry x="370" y="870" width="180" height="120" as="geometry" />
        </mxCell>
        <mxCell id="4kRNJsw04LjUU6sO1p-s-66" style="edgeStyle=orthogonalEdgeStyle;rounded=0;orthogonalLoop=1;jettySize=auto;html=1;exitX=0.5;exitY=1;exitDx=0;exitDy=0;" edge="1" parent="WIyWlLk6GJQsqaUBKTNV-1" source="4kRNJsw04LjUU6sO1p-s-63" target="4kRNJsw04LjUU6sO1p-s-18">
          <mxGeometry relative="1" as="geometry" />
        </mxCell>
        <mxCell id="4kRNJsw04LjUU6sO1p-s-63" value="Complete previous check ins" style="rounded=1;whiteSpace=wrap;html=1;absoluteArcSize=1;arcSize=14;strokeWidth=2;" vertex="1" parent="WIyWlLk6GJQsqaUBKTNV-1">
          <mxGeometry x="45" y="620" width="100" height="100" as="geometry" />
        </mxCell>
        <mxCell id="4kRNJsw04LjUU6sO1p-s-70" style="edgeStyle=orthogonalEdgeStyle;rounded=0;orthogonalLoop=1;jettySize=auto;html=1;exitX=0;exitY=0.5;exitDx=0;exitDy=0;exitPerimeter=0;entryX=0.5;entryY=0;entryDx=0;entryDy=0;" edge="1" parent="WIyWlLk6GJQsqaUBKTNV-1" source="4kRNJsw04LjUU6sO1p-s-67" target="4kRNJsw04LjUU6sO1p-s-69">
          <mxGeometry relative="1" as="geometry" />
        </mxCell>
        <mxCell id="4kRNJsw04LjUU6sO1p-s-71" value="yes" style="edgeLabel;html=1;align=center;verticalAlign=middle;resizable=0;points=[];" vertex="1" connectable="0" parent="4kRNJsw04LjUU6sO1p-s-70">
          <mxGeometry x="0.3647" y="-2" relative="1" as="geometry">
            <mxPoint as="offset" />
          </mxGeometry>
        </mxCell>
        <mxCell id="4kRNJsw04LjUU6sO1p-s-67" value="is user?" style="strokeWidth=2;html=1;shape=mxgraph.flowchart.decision;whiteSpace=wrap;" vertex="1" parent="WIyWlLk6GJQsqaUBKTNV-1">
          <mxGeometry x="45" y="960" width="100" height="100" as="geometry" />
        </mxCell>
        <mxCell id="4kRNJsw04LjUU6sO1p-s-68" style="edgeStyle=orthogonalEdgeStyle;rounded=0;orthogonalLoop=1;jettySize=auto;html=1;exitX=0.5;exitY=1;exitDx=0;exitDy=0;entryX=0.5;entryY=0;entryDx=0;entryDy=0;entryPerimeter=0;" edge="1" parent="WIyWlLk6GJQsqaUBKTNV-1" source="4kRNJsw04LjUU6sO1p-s-18" target="4kRNJsw04LjUU6sO1p-s-67">
          <mxGeometry relative="1" as="geometry" />
        </mxCell>
        <mxCell id="4kRNJsw04LjUU6sO1p-s-69" value="Find session orders and cart" style="rounded=1;whiteSpace=wrap;html=1;absoluteArcSize=1;arcSize=14;strokeWidth=2;" vertex="1" parent="WIyWlLk6GJQsqaUBKTNV-1">
          <mxGeometry x="-55" y="1100" width="100" height="100" as="geometry" />
        </mxCell>
        <mxCell id="4kRNJsw04LjUU6sO1p-s-72" value="Success" style="strokeWidth=2;html=1;shape=mxgraph.flowchart.terminator;whiteSpace=wrap;" vertex="1" parent="WIyWlLk6GJQsqaUBKTNV-1">
          <mxGeometry x="45" y="1300" width="100" height="60" as="geometry" />
        </mxCell>
        <mxCell id="4kRNJsw04LjUU6sO1p-s-73" style="edgeStyle=orthogonalEdgeStyle;rounded=0;orthogonalLoop=1;jettySize=auto;html=1;exitX=0.5;exitY=1;exitDx=0;exitDy=0;entryX=0;entryY=0.5;entryDx=0;entryDy=0;entryPerimeter=0;" edge="1" parent="WIyWlLk6GJQsqaUBKTNV-1" source="4kRNJsw04LjUU6sO1p-s-69" target="4kRNJsw04LjUU6sO1p-s-72">
          <mxGeometry relative="1" as="geometry" />
        </mxCell>
        <mxCell id="4kRNJsw04LjUU6sO1p-s-74" style="edgeStyle=orthogonalEdgeStyle;rounded=0;orthogonalLoop=1;jettySize=auto;html=1;exitX=0.5;exitY=1;exitDx=0;exitDy=0;exitPerimeter=0;entryX=0.5;entryY=0;entryDx=0;entryDy=0;entryPerimeter=0;" edge="1" parent="WIyWlLk6GJQsqaUBKTNV-1">
          <mxGeometry relative="1" as="geometry">
            <mxPoint x="94" y="1060" as="sourcePoint" />
            <mxPoint x="94" y="1300" as="targetPoint" />
          </mxGeometry>
        </mxCell>
      </root>
    </mxGraphModel>
  </diagram>
</mxfile>
